# xmcd
#
# Track frame offsets: 
#        183
#        16983
#        30515
#        43705
#        54503
#        70398
#        86243
#        102955
#        115200
#        128295
#        147015
#        162383
#        178740
#        196950
#        211848
#        227923
#
# Disc length: 3215 seconds
#
# Revision: 0
# Processed by: cddbd v1.5.2PL0 Copyright (c) Steve Scherf et al.
# Submitted via: ExactAudioCopyFreeDBPlugin 1.0
#
DISCID=d80c8d10
DTITLE=Paul Ruys - For sentimental journey
DYEAR=1992
DGENRE=Pop
TTITLE0=The frim fram sauce
TTITLE1=Little girl
TTITLE2=Don't sit on my bed
TTITLE3=Paper doll
TTITLE4=Exactly like you
TTITLE5=If i had you
TTITLE6=Don't fence me in
TTITLE7=What's the use of getting sober
TTITLE8=What a difference a day made
TTITLE9=(I love you) For sentimental reasons
TTITLE10=Is you is or is you ain't my baby
TTITLE11=That's my desire
TTITLE12=Lillette
TTITLE13=It's the talk of the town
TTITLE14=One for my baby
TTITLE15=That's my girl
EXTD=
EXTT0=
EXTT1=
EXTT2=
EXTT3=
EXTT4=
EXTT5=
EXTT6=
EXTT7=
EXTT8=
EXTT9=
EXTT10=
EXTT11=
EXTT12=
EXTT13=
EXTT14=
EXTT15=
PLAYORDER=
